<?xml version="1.0" encoding="UTF-8"?>
<svg id="_0" data-name="0" xmlns="http://www.w3.org/2000/svg" viewBox="0 0 1701.5 851.1">
  <defs>
    <style>
      .cls-1 {
        fill: none;
        stroke: #000;
        stroke-linecap: round;
        stroke-linejoin: round;
        stroke-width: .71px;
      }
    </style>
  </defs>
  <g id="LWPOLYLINE">
    <rect class="cls-1" x=".35" y=".35" width="1700.79" height="850.39"/>
  </g>
  <g id="LWPOLYLINE-2" data-name="LWPOLYLINE">
    <rect class="cls-1" x="11.69" y="28.7" width="164.41" height="453.54"/>
  </g>
  <g id="CIRCLE">
    <circle class="cls-1" cx="660.83" cy="425.55" r="6.09"/>
  </g>
  <g id="CIRCLE-2" data-name="CIRCLE">
    <circle class="cls-1" cx="1035" cy="425.55" r="6.09"/>
  </g>
  <g id="CIRCLE-3" data-name="CIRCLE">
    <circle class="cls-1" cx="93.9" cy="71.22" r="6.09"/>
  </g>
  <g id="CIRCLE-4" data-name="CIRCLE">
    <circle class="cls-1" cx="93.9" cy="445.39" r="6.09"/>
  </g>
  <g id="CIRCLE-5" data-name="CIRCLE">
    <circle class="cls-1" cx="37.2" cy="255.47" r="6.09"/>
  </g>
  <g id="CIRCLE-6" data-name="CIRCLE">
    <circle class="cls-1" cx="150.59" cy="255.47" r="6.09"/>
  </g>
  <g id="LWPOLYLINE-3" data-name="LWPOLYLINE">
    <rect class="cls-1" x="179.88" y="28.7" width="164.41" height="453.54"/>
  </g>
  <g id="CIRCLE-7" data-name="CIRCLE">
    <circle class="cls-1" cx="205.39" cy="255.47" r="6.09"/>
  </g>
  <g id="CIRCLE-8" data-name="CIRCLE">
    <circle class="cls-1" cx="318.78" cy="255.47" r="6.09"/>
  </g>
  <g id="CIRCLE-9" data-name="CIRCLE">
    <circle class="cls-1" cx="262.09" cy="71.22" r="6.09"/>
  </g>
  <g id="CIRCLE-10" data-name="CIRCLE">
    <circle class="cls-1" cx="262.09" cy="445.39" r="6.09"/>
  </g>
  <g id="LWPOLYLINE-4" data-name="LWPOLYLINE">
    <rect class="cls-1" x="348.07" y="28.7" width="164.41" height="453.54"/>
  </g>
  <g id="CIRCLE-11" data-name="CIRCLE">
    <circle class="cls-1" cx="373.58" cy="255.47" r="6.09"/>
  </g>
  <g id="CIRCLE-12" data-name="CIRCLE">
    <circle class="cls-1" cx="486.97" cy="255.47" r="6.09"/>
  </g>
  <g id="CIRCLE-13" data-name="CIRCLE">
    <circle class="cls-1" cx="430.28" cy="71.22" r="6.09"/>
  </g>
  <g id="CIRCLE-14" data-name="CIRCLE">
    <circle class="cls-1" cx="430.28" cy="445.39" r="6.09"/>
  </g>
  <g id="LWPOLYLINE-5" data-name="LWPOLYLINE">
    <rect class="cls-1" x="516.26" y="28.7" width="164.41" height="453.54"/>
  </g>
  <g id="CIRCLE-15" data-name="CIRCLE">
    <circle class="cls-1" cx="541.77" cy="255.47" r="6.09"/>
  </g>
  <g id="CIRCLE-16" data-name="CIRCLE">
    <circle class="cls-1" cx="655.16" cy="255.47" r="6.09"/>
  </g>
  <g id="CIRCLE-17" data-name="CIRCLE">
    <circle class="cls-1" cx="598.46" cy="71.22" r="6.09"/>
  </g>
  <g id="CIRCLE-18" data-name="CIRCLE">
    <circle class="cls-1" cx="598.46" cy="445.39" r="6.09"/>
  </g>
  <g id="LWPOLYLINE-6" data-name="LWPOLYLINE">
    <rect class="cls-1" x="684.45" y="28.7" width="164.41" height="453.54"/>
  </g>
  <g id="CIRCLE-19" data-name="CIRCLE">
    <circle class="cls-1" cx="709.96" cy="255.47" r="6.09"/>
  </g>
  <g id="CIRCLE-20" data-name="CIRCLE">
    <circle class="cls-1" cx="823.35" cy="255.47" r="6.09"/>
  </g>
  <g id="CIRCLE-21" data-name="CIRCLE">
    <circle class="cls-1" cx="766.65" cy="71.22" r="6.09"/>
  </g>
  <g id="CIRCLE-22" data-name="CIRCLE">
    <circle class="cls-1" cx="766.65" cy="445.39" r="6.09"/>
  </g>
  <g id="LWPOLYLINE-7" data-name="LWPOLYLINE">
    <rect class="cls-1" x="852.64" y="28.7" width="164.41" height="453.54"/>
  </g>
  <g id="CIRCLE-23" data-name="CIRCLE">
    <circle class="cls-1" cx="878.15" cy="255.47" r="6.09"/>
  </g>
  <g id="CIRCLE-24" data-name="CIRCLE">
    <circle class="cls-1" cx="991.54" cy="255.47" r="6.09"/>
  </g>
  <g id="CIRCLE-25" data-name="CIRCLE">
    <circle class="cls-1" cx="934.84" cy="71.22" r="6.09"/>
  </g>
  <g id="CIRCLE-26" data-name="CIRCLE">
    <circle class="cls-1" cx="934.84" cy="445.39" r="6.09"/>
  </g>
  <g id="LWPOLYLINE-8" data-name="LWPOLYLINE">
    <rect class="cls-1" x="1020.83" y="28.7" width="164.41" height="453.54"/>
  </g>
  <g id="CIRCLE-27" data-name="CIRCLE">
    <circle class="cls-1" cx="1046.34" cy="255.47" r="6.09"/>
  </g>
  <g id="CIRCLE-28" data-name="CIRCLE">
    <circle class="cls-1" cx="1159.72" cy="255.47" r="6.09"/>
  </g>
  <g id="CIRCLE-29" data-name="CIRCLE">
    <circle class="cls-1" cx="1103.03" cy="71.22" r="6.09"/>
  </g>
  <g id="CIRCLE-30" data-name="CIRCLE">
    <circle class="cls-1" cx="1103.03" cy="445.39" r="6.09"/>
  </g>
  <g id="LWPOLYLINE-9" data-name="LWPOLYLINE">
    <rect class="cls-1" x="1189.02" y="28.7" width="164.41" height="453.54"/>
  </g>
  <g id="CIRCLE-31" data-name="CIRCLE">
    <circle class="cls-1" cx="1214.53" cy="255.47" r="6.09"/>
  </g>
  <g id="CIRCLE-32" data-name="CIRCLE">
    <circle class="cls-1" cx="1327.91" cy="255.47" r="6.09"/>
  </g>
  <g id="CIRCLE-33" data-name="CIRCLE">
    <circle class="cls-1" cx="1271.22" cy="71.22" r="6.09"/>
  </g>
  <g id="CIRCLE-34" data-name="CIRCLE">
    <circle class="cls-1" cx="1271.22" cy="445.39" r="6.09"/>
  </g>
  <g id="LWPOLYLINE-10" data-name="LWPOLYLINE">
    <rect class="cls-1" x="1357.2" y="28.7" width="164.41" height="453.54"/>
  </g>
  <g id="CIRCLE-35" data-name="CIRCLE">
    <circle class="cls-1" cx="1382.72" cy="255.47" r="6.09"/>
  </g>
  <g id="CIRCLE-36" data-name="CIRCLE">
    <circle class="cls-1" cx="1496.1" cy="255.47" r="6.09"/>
  </g>
  <g id="CIRCLE-37" data-name="CIRCLE">
    <circle class="cls-1" cx="1439.41" cy="71.22" r="6.09"/>
  </g>
  <g id="CIRCLE-38" data-name="CIRCLE">
    <circle class="cls-1" cx="1439.41" cy="445.39" r="6.09"/>
  </g>
  <g id="LWPOLYLINE-11" data-name="LWPOLYLINE">
    <rect class="cls-1" x="1525.39" y="28.7" width="164.41" height="453.54"/>
  </g>
  <g id="CIRCLE-39" data-name="CIRCLE">
    <circle class="cls-1" cx="1550.91" cy="255.47" r="6.09"/>
  </g>
  <g id="CIRCLE-40" data-name="CIRCLE">
    <circle class="cls-1" cx="1664.29" cy="255.47" r="6.09"/>
  </g>
  <g id="CIRCLE-41" data-name="CIRCLE">
    <circle class="cls-1" cx="1607.6" cy="71.22" r="6.09"/>
  </g>
  <g id="CIRCLE-42" data-name="CIRCLE">
    <circle class="cls-1" cx="1607.6" cy="445.39" r="6.09"/>
  </g>
</svg>